PathFileType	4	(X/Y/Z)	6_coords_data.trc
DataRate	CameraRate	NumFrames	NumMarkers	Units	OrigDataRate	OrigDataStartFrame	OrigNumFrames
30.0	30.0	6	21	m	30.0	68	77
Frame#	Time	THUMB_TIP	THUMB_IP	THUMB_MCP	THUMB_CMC	INDEX_TIP	INDEX_DIP	INDEX_PIP	INDEX_MCP	MIDDLE_TIP	MIDDLE_DIP	MIDDLE_PIP	MIDDLE_MCP	RING_TIP	RING_DIP	RING_PIP	RING_MCP	PINKY_TIP	PINKY_DIP	PINKY_PIP	PINKY_MCP	WRIST
X1	Y1	Z1	X2	Y2	Z2	X3	Y3	Z3	X4	Y4	Z4	X5	Y5	Z5	X6	Y6	Z6	X7	Y7	Z7	X8	Y8	Z8	X9	Y9	Z9	X10	Y10	Z10	X11	Y11	Z11	X12	Y12	Z12	X13	Y13	Z13	X14	Y14	Z14	X15	Y15	Z15	X16	Y16	Z16	X17	Y17	Z17	X18	Y18	Z18	X19	Y19	Z19	X20	Y20	Z20	X21	Y21	Z21
66	2.2333333333333236	0.5162448534611386	-0.03606261869376004	-0.16116466801057433	0.5117163432306837	-0.036115880811136036	-0.13863713467379907	0.4898966471689059	-0.03641688001997978	-0.11644185897720288	0.4800525057740993	-0.029612566381220562	-0.07346879536632622	0.586688293727144	0.013118945931199333	-0.14580614697229927	0.56914279023399	0.016795287003948056	-0.14322936147704818	0.5449179660836182	0.017654205155844815	-0.1365637791700094	0.5095416944524936	0.0061214714910501344	-0.1158478057751191	0.5979012525729722	0.02375205175784778	-0.12115534393329022	0.5811900859905204	0.03059512186378066	-0.11977356863360197	0.5528443458009586	0.03479846359318606	-0.11445750981040309	0.5140805908633831	0.020837346474881002	-0.09717727737711207	0.5995853581067517	0.024244686075208688	-0.09441157250491522	0.5833174582862956	0.03145829546093826	-0.09152725715084575	0.5592369771758686	0.035884890063877295	-0.086975810269732	0.521795576678735	0.024419820636844336	-0.07690533134137062	0.5878745707972778	0.011846100658598924	-0.06428996112764912	0.5760636229819133	0.02360901803624116	-0.060399551577293764	0.5567857471961329	0.03128016739593931	-0.057185676705860555	0.522915046130362	0.019073755503404066	-0.05502637843490338	0.4622830810018609	-0.023011742144276925	-0.051989820119430985
67	2.266666666666657	0.5166581964467495	-0.03535947276412854	-0.1610425710591577	0.5122037607299821	-0.03561136469908588	-0.1385016182643379	0.4904448632843419	-0.03609587889623689	-0.11624997500046041	0.48026429312073693	-0.029523420943817658	-0.0733192309164406	0.586275119236036	0.01715727343121709	-0.14841977780189175	0.568667487756017	0.019109980989467923	-0.1446570332110653	0.5447742556044829	0.01823832962339622	-0.13688763720822694	0.5100398236665775	0.005757002060911454	-0.11564212487670184	0.598513624605503	0.0302274750378686	-0.12337711622192535	0.5810590944982791	0.034438014818804485	-0.12100841753083516	0.5526482501046226	0.03575275114984522	-0.114644068450271	0.5145598543036042	0.020422760660645634	-0.0970255152206207	0.6008210862006824	0.031165899261082042	-0.0948111343041601	0.583630475555039	0.03550112826568008	-0.09154177731729246	0.5592485645981246	0.036910461386515214	-0.0866718515228252	0.5222660844139762	0.023856920644943713	-0.07684219906013823	0.5898299007879653	0.015603204512300572	-0.06362153913895896	0.5766151891990007	0.02578773971812609	-0.05979444621327962	0.556745091020342	0.031849773581330676	-0.05675422207486036	0.5232466661732206	0.018591111825000173	-0.055037576452438564	0.4622830810018609	-0.023011742144276925	-0.051989820119430985
69	2.300000000000001	0.51704222774936	-0.03459785271621496	-0.16093833310144717	0.5126733360314117	-0.035061274492312555	-0.1383839981430787	0.49099605481160824	-0.03575811821587205	-0.1160584547512038	0.4804627398817949	-0.029447573021813	-0.07317353553776568	0.5856585579873593	0.020740997010619266	-0.15028866819352343	0.5681627064743939	0.021280804246219587	-0.14564068067367547	0.5446599207134348	0.018874537941202307	-0.1370477314160691	0.5105127406075746	0.005481503383126363	-0.11540904360594254	0.598389952044128	0.03610665345271036	-0.12500293700855367	0.5806587685585421	0.037963099624535146	-0.12181565920271306	0.5524350467512332	0.03671883164990497	-0.11465445298092766	0.5149825311710499	0.0201108319750265	-0.0968322380648356	0.6011697869548323	0.037423994614067535	-0.0947228001929169	0.5835674214248553	0.03911872064329336	-0.09121785633674101	0.5592037636522157	0.03790416889326498	-0.0862061677007418	0.5226806393883145	0.023393071957398814	-0.0767082577347793	0.5911591434982593	0.019170372866032515	-0.0628139832521818	0.5769040534099328	0.02788793185649019	-0.05909960957394378	0.5566156725911657	0.03247261011249347	-0.056240527895919934	0.5235186728098021	0.01819422824128425	-0.054975669163750795	0.4622830810018609	-0.023011742144276925	-0.051989820119430985
70	2.333333333333335	0.5173795716424759	-0.03385920485055782	-0.16084717359571535	0.5130868677635665	-0.03451915562212249	-0.13828310573579466	0.4914856615896829	-0.03541993079919892	-0.11589122113637501	0.4806348415674825	-0.02937168109093735	-0.0730476874315984	0.5849123358988245	0.02395190053288332	-0.15170528666369504	0.5676324070666792	0.023242284784838696	-0.14632936766820043	0.5445471525686573	0.019517021412070568	-0.1370988058995392	0.5109110899777045	0.005306202144380934	-0.11518296680726231	0.5977736457659795	0.04139436031916033	-0.12622822635871445	0.5800830979627063	0.0411049380220776	-0.12236031307710424	0.5522191400343277	0.037597241654664715	-0.11456894190383898	0.515325714408537	0.01989602901050258	-0.09663321951748366	0.6008854360870886	0.04295508527313163	-0.09439419811751715	0.5832400798140934	0.04231292901035355	-0.09075702375638917	0.55911128554264	0.03879427124398083	-0.08569734851690791	0.5230184718692381	0.023032730576371785	-0.0765538551516558	0.5920592209777275	0.022398045960666524	-0.062040598565389404	0.5770206916715066	0.029745782993646608	-0.058455435138137224	0.5564569826066323	0.03302203628714595	-0.05576990858789688	0.5237344844799557	0.017877666263561243	-0.0548926264563136	0.462283081001861	-0.023011742144276925	-0.051989820119430985
71	2.366666666666668	0.5176728351232207	-0.03317957773243685	-0.16076690565227914	0.5134371495757487	-0.03401307093759509	-0.13819780604640441	0.491896013467915	-0.03509884490429016	-0.11575631433847561	0.4807734126948702	-0.029298484860514895	-0.07294821258885309	0.5841425499096391	0.02674016549637337	-0.15269445785216515	0.5671242762647218	0.024975136841954515	-0.14675618908123605	0.544433947714251	0.020159854832531243	-0.13706227952722133	0.5112256265781758	0.005225386924819775	-0.11497596771114765	0.5968754804088708	0.04591508748938222	-0.12706375143923732	0.5794328740323285	0.04379942885521537	-0.12267291195951624	0.5520135468023412	0.03837904831978589	-0.11441400651714559	0.5155872383126368	0.019773073417053477	-0.09643931128379662	0.6002325414177918	0.0475437747256503	-0.09390515344269423	0.5827726313262961	0.04498236280230905	-0.09021859562328416	0.5589931463845761	0.039562820599929105	-0.08518424986408785	0.5232774504488007	0.022775467734314603	-0.07639251046914503	0.5926151768860934	0.025158207864110382	-0.0613568447632043	0.5770193065047443	0.031307625819594675	-0.05789946340487501	0.5562913095856795	0.033486061554243274	-0.0553663663926679	0.5238945638440774	0.01764274603077498	-0.05479744673417819	0.4622830810018609	-0.023011742144276925	-0.051989820119430985
72	2.4000000000000012	0.5179251895562687	-0.032595026457351906	-0.1606962231575786	0.5137175232248331	-0.03357117741743354	-0.13812760172545657	0.49220973652981437	-0.03481244022033658	-0.11566219769758063	0.48087143338425	-0.02923066500223992	-0.07288163356859878	0.5834568997465782	0.029036284881207575	-0.15326925210487868	0.5666835176954568	0.02644984118635285	-0.14694754635559965	0.5443171130611262	0.020795616963415586	-0.1369583759611103	0.5114469517283737	0.005233238348331226	-0.11479983449738593	0.5959319140240129	0.04949862662732585	-0.12752803903792165	0.5788128091578488	0.04597473357318316	-0.12278268064005107	0.5518296249488627	0.03905270290648932	-0.11421513656994126	0.5157646638761372	0.019736388072744138	-0.09626112629183248	0.5994937620489984	0.051004432536683186	-0.0933414486426557	0.5822997869177939	0.04702333413986459	-0.08966475519033046	0.5588709155267877	0.040190835563018945	-0.08470643616659984	0.5234549701274224	0.022620631221101473	-0.07623769571406214	0.5929124263622035	0.027313291925914807	-0.060819978911614114	0.5769532989744613	0.03251722769800103	-0.05746956020616617	0.5561400174014852	0.033852660647314625	-0.055053789521290086	0.5239990158682936	0.017490701910183537	-0.0546991379630134	0.4622830810018608	-0.023011742144276925	-0.051989820119430985
